<?xml version="1.0" encoding="iso-8859-1"?>
<!-- Generator: Adobe Illustrator 19.0.0, SVG Export Plug-In . SVG Version: 6.00 Build 0)  -->
<svg version="1.1" id="Capa_1" xmlns="http://www.w3.org/2000/svg" xmlns:xlink="http://www.w3.org/1999/xlink" x="0px" y="0px"
	 viewBox="0 0 512 512" style="enable-background:new 0 0 512 512;" xml:space="preserve">
<circle style="fill:#0B2532;" cx="253.8" cy="256" r="253.8"/>
<g>
	<path style="fill:#ABD1EA;" d="M249.838,375.412H116.11V54.006c0-3.646-0.808-6.889-2.279-9.758
		c-6.33-12.39-24.904-17.808-43.468-17.808c-22.873,0-45.747,8.215-45.747,27.566v311.162c16.823,35.263,41.541,66.02,71.873,90.012
		h153.348c17.59,0,26.385-19.942,26.385-39.883C276.223,395.354,267.428,375.412,249.838,375.412z"/>
	<path style="fill:#ABD1EA;" d="M495.301,177.716c-4.693-3.315-10.038-5.231-15.56-5.231h-17.01
		c-29.907,0-58.064,26.976-69.79,52.781v-21.703c0-16.419-18.181-27.566-40.474-27.566c-25.805,0-44.576,11.147-44.576,27.566
		v223.46c0,14.078,18.771,28.156,44.576,28.156s46.337-14.078,46.337-28.156v-87.971c0-53.371,31.668-87.391,63.927-87.391h17.01
		c10.836,0,20.946-7.376,26.872-18.336c3.377-6.247,5.387-13.664,5.387-21.547C512,197.523,505.049,184.605,495.301,177.716z"/>
</g>
<g>
</g>
<g>
</g>
<g>
</g>
<g>
</g>
<g>
</g>
<g>
</g>
<g>
</g>
<g>
</g>
<g>
</g>
<g>
</g>
<g>
</g>
<g>
</g>
<g>
</g>
<g>
</g>
<g>
</g>
</svg>
